<?xml version="1.0" encoding="utf-8"?><svg xmlns="http://www.w3.org/2000/svg" xmlns:xlink="http://www.w3.org/1999/xlink" width="1920" height="937" preserveAspectRatio="xMidYMid" viewBox="0 0 1920 937" style="z-index:1;margin-right:-2px;display:block;background-color:rgb(0, 0, 0);animation-play-state:paused" ><g transform="translate(960,468.5) scale(1,1) translate(-960,-468.5)" style="transform:matrix(1, 0, 0, 1, 0, 0);animation-play-state:paused" ><circle cx="0" cy="0" r="2136.4383913420015" fill="rgba(95, 185, 176, 0.3959475806451612)" fill-opacity="0.4" transform="matrix(0.9950000047683716,0,0,0.9950000047683716,0,0)" style="transform:matrix(0.995, 0, 0, 0.995, 0, 0);animation-play-state:paused" ></circle>
<circle cx="0" cy="0" r="1942.2167194018195" fill="rgba(88, 187, 174, 0.4508614369501466)" fill-opacity="0.4" transform="matrix(0.9957138299942017,0,0,0.9957138299942017,0,0)" style="transform:matrix(0.995714, 0, 0, 0.995714, 0, 0);animation-play-state:paused" ></circle>
<circle cx="0" cy="0" r="1747.9950474616378" fill="rgba(80, 188, 173, 0.5057752932551318)" fill-opacity="0.4" transform="matrix(0.99781733751297,0,0,0.99781733751297,0,0)" style="transform:matrix(0.997817, 0, 0, 0.997817, 0, 0);animation-play-state:paused" ></circle>
<circle cx="0" cy="0" r="1553.7733755214556" fill="rgba(73, 190, 170, 0.5606891495601172)" fill-opacity="0.4" transform="matrix(1.0007541179656982,0,0,1.0007541179656982,0,0)" style="transform:matrix(1.00075, 0, 0, 1.00075, 0, 0);animation-play-state:paused" ></circle>
<circle cx="0" cy="0" r="1359.5517035812736" fill="rgba(65, 192, 167, 0.6156030058651025)" fill-opacity="0.4" transform="matrix(1.0033912658691406,0,0,1.0033912658691406,0,0)" style="transform:matrix(1.00339, 0, 0, 1.00339, 0, 0);animation-play-state:paused" ></circle>
<circle cx="0" cy="0" r="1165.3300316410916" fill="rgba(57, 193, 164, 0.670516862170088)" fill-opacity="0.4" transform="matrix(1.004823923110962,0,0,1.004823923110962,0,0)" style="transform:matrix(1.00482, 0, 0, 1.00482, 0, 0);animation-play-state:paused" ></circle>
<circle cx="0" cy="0" r="971.1083597009098" fill="rgba(49, 195, 160, 0.7254307184750732)" fill-opacity="0.4" transform="matrix(1.004823923110962,0,0,1.004823923110962,0,0)" style="transform:matrix(1.00482, 0, 0, 1.00482, 0, 0);animation-play-state:paused" ></circle>
<circle cx="0" cy="0" r="776.8866877607278" fill="rgba(40, 196, 156, 0.7803445747800586)" fill-opacity="0.4" transform="matrix(1.0033912658691406,0,0,1.0033912658691406,0,0)" style="transform:matrix(1.00339, 0, 0, 1.00339, 0, 0);animation-play-state:paused" ></circle>
<circle cx="0" cy="0" r="582.6650158205458" fill="rgba(31, 197, 152, 0.8352584310850439)" fill-opacity="0.4" transform="matrix(1.0007541179656982,0,0,1.0007541179656982,0,0)" style="transform:matrix(1.00075, 0, 0, 1.00075, 0, 0);animation-play-state:paused" ></circle>
<circle cx="0" cy="0" r="388.4433438803639" fill="rgba(22, 199, 147, 0.8901722873900293)" fill-opacity="0.4" transform="matrix(0.9978172779083252,0,0,0.9978172779083252,0,0)" style="transform:matrix(0.997817, 0, 0, 0.997817, 0, 0);animation-play-state:paused" ></circle>
<circle cx="0" cy="0" r="194.22167194018195" fill="rgba(12, 200, 142, 0.9450861436950146)" fill-opacity="0.4" transform="matrix(0.9957138299942017,0,0,0.9957138299942017,0,0)" style="transform:matrix(0.995714, 0, 0, 0.995714, 0, 0);animation-play-state:paused" ></circle>
<circle cx="0" cy="0" r="0" fill="#03c988" fill-opacity="0.4" transform="matrix(0.9950000047683716,0,0,0.9950000047683716,0,0)" style="transform:matrix(0.995, 0, 0, 0.995, 0, 0);animation-play-state:paused" ></circle></g></svg>